<?xml version="1.0" encoding="UTF-8" standalone="no"?>
<svg
   version="1.1"
   width="927"
   height="927"
   id="svg15"
   sodipodi:docname="logo.svg"
   inkscape:version="1.4.2 (ebf0e940, 2025-05-08)"
   xmlns:inkscape="http://www.inkscape.org/namespaces/inkscape"
   xmlns:sodipodi="http://sodipodi.sourceforge.net/DTD/sodipodi-0.dtd"
   xmlns="http://www.w3.org/2000/svg"
   xmlns:svg="http://www.w3.org/2000/svg">
  <defs
     id="defs15" />
  <sodipodi:namedview
     id="namedview15"
     pagecolor="#ffffff"
     bordercolor="#000000"
     borderopacity="0.25"
     inkscape:showpageshadow="2"
     inkscape:pageopacity="0.0"
     inkscape:pagecheckerboard="0"
     inkscape:deskcolor="#d1d1d1"
     inkscape:zoom="0.74605278"
     inkscape:cx="522.08102"
     inkscape:cy="457.74241"
     inkscape:window-width="1512"
     inkscape:window-height="916"
     inkscape:window-x="0"
     inkscape:window-y="38"
     inkscape:window-maximized="0"
     inkscape:current-layer="svg15" />
  <path
     d="M0 0 C5.10982934 3.60010704 8.89632225 7.91329033 10.75 13.9375 C11.02375476 17.38300088 10.98251444 20.81510415 10.9453125 24.26953125 C10.9424826 25.26127853 10.93965271 26.25302582 10.93673706 27.27482605 C10.92556804 30.43334159 10.90046927 33.59157057 10.875 36.75 C10.86496597 38.89517819 10.85584086 41.04036083 10.84765625 43.18554688 C10.82563945 48.43629521 10.79219443 53.68687713 10.75 58.9375 C11.78468918 58.92719254 12.81937836 58.91688507 13.88542175 58.90626526 C47.05945284 58.57676345 80.23373464 58.2771748 113.40817469 57.99217051 C118.29816225 57.9501196 123.18814445 57.90748048 128.078125 57.86462402 C204.64496214 57.19482132 281.21243548 56.80448797 357.78223163 56.71040863 C358.8778223 56.70906246 359.97341298 56.7077163 361.10220337 56.70632935 C362.19497375 56.70500065 363.28774413 56.70367195 364.41362876 56.70230299 C372.09172199 56.6922749 379.76977471 56.67463786 387.44784546 56.65377808 C396.8317292 56.62848089 406.21555391 56.61414376 415.599473 56.61366135 C420.42918613 56.61317501 425.25876919 56.60794908 430.08845139 56.58989906 C434.54976263 56.57343465 439.01085567 56.57120955 443.47218668 56.57991898 C445.08652109 56.58066083 446.70086777 56.57638031 448.3151716 56.56641567 C462.58110006 56.4834771 474.67963897 57.7629771 485.6484375 67.6484375 C493.15958976 75.4219881 496.6635962 85.41024417 499.0625 95.75 C499.22194092 96.42337402 499.38138184 97.09674805 499.5456543 97.79052734 C501.14782651 105.40636857 501.36098735 113.18524639 501.75 120.9375 C502.7922876 120.92178955 503.8345752 120.9060791 504.90844727 120.88989258 C508.85026023 120.83476333 512.79204073 120.80085482 516.73413086 120.77270508 C518.42624682 120.75780433 520.11832548 120.73747666 521.81030273 120.71118164 C551.98627166 120.25464814 551.98627166 120.25464814 562.75 129.9375 C566.15193495 133.33943495 568.63906827 136.61986228 570.75 140.9375 C582.23807841 141.67115907 593.69015002 142.10276401 605.2009449 142.19786072 C607.82008532 142.21955708 610.43913232 142.24650918 613.05821228 142.27453613 C618.64293483 142.333367 624.22770835 142.38571823 629.8125 142.4375 C644.12549584 142.5716068 658.43794683 142.72375932 672.75 142.9375 C673.96953495 142.95508362 673.96953495 142.95508362 675.21370697 142.97302246 C679.81638215 143.04108184 684.41824208 143.12528407 689.02013969 143.23414612 C691.03303186 143.27927563 693.04619593 143.31174171 695.05934143 143.34362793 C715.82901874 143.90166845 715.82901874 143.90166845 723.75 150.9375 C722.7222372 153.91801212 721.84729552 154.87726944 719.125 156.5625 C709.3718669 160.53599867 699.48845394 161.01114088 689.05859375 160.9921875 C688.31830933 160.99142212 687.5780249 160.99065674 686.81530762 160.98986816 C679.84206764 160.96611361 672.87648318 160.77995356 665.90649414 160.57983398 C657.07901845 160.32894414 648.24956802 160.17019845 639.42010498 160.00762939 C636.84827239 159.9584861 634.27659693 159.90687453 631.70489502 159.85174561 C623.62458521 159.67938095 615.54498086 159.5363672 607.46320534 159.453825 C603.77397363 159.415383 600.08615683 159.36302947 596.39770508 159.27685547 C592.23492756 159.18036698 588.07396545 159.14822602 583.91015625 159.12109375 C582.65372818 159.0829808 581.39730011 159.04486786 580.10279846 159.00559998 C573.96924973 158.80752773 573.96924973 158.80752773 568.8939209 161.69760132 C567.61791032 163.73359642 566.67829309 165.72694853 565.75 167.9375 C559.51588263 175.25009337 551.06012926 178.41480798 541.75 179.9375 C538.74521041 180.13061585 535.74049635 180.1930978 532.73046875 180.25390625 C531.44261223 180.2850779 531.44261223 180.2850779 530.1287384 180.31687927 C527.39840346 180.38202523 524.66797605 180.44109654 521.9375 180.5 C520.08137082 180.5432185 518.22525084 180.58683384 516.36914062 180.63085938 C511.82952075 180.73767061 507.28980828 180.83903565 502.75 180.9375 C502.62592773 182.07985107 502.50185547 183.22220215 502.37402344 184.39916992 C502.20271306 185.92629637 502.03115009 187.4533945 501.859375 188.98046875 C501.77864746 189.73001831 501.69791992 190.47956787 501.61474609 191.25183105 C499.93554793 206.00878443 495.33205283 220.73594631 484.16015625 231.03125 C472.20718387 240.48514064 457.95337561 240.23648488 443.36846924 240.2159729 C441.73414929 240.22098468 440.09983181 240.22686304 438.46551776 240.23352563 C434.00185389 240.24924089 429.53825312 240.25275172 425.07456493 240.25417423 C420.24761881 240.25788458 415.42070663 240.27305111 410.59378052 240.28678894 C402.22906098 240.30903519 393.8643536 240.32406666 385.4996109 240.33415604 C373.3534926 240.34881188 361.20741603 240.37437736 349.0613223 240.40248732 C329.28373127 240.44795597 309.50613412 240.48455023 289.72851562 240.515625 C270.64061353 240.54563394 251.55272729 240.57995234 232.46484375 240.62011719 C231.29436356 240.62257874 230.12388337 240.62504028 228.91793409 240.62757643 C224.20959743 240.63749677 219.50126085 240.64745068 214.79292436 240.65744839 C62.84860097 240.97999914 62.84860097 240.97999914 9.75 240.9375 C9.779323 244.06026398 9.80892599 247.18302525 9.83857727 250.30578613 C9.85095137 251.62411375 9.85095137 251.62411375 9.86357546 252.96907425 C9.90668183 257.49452672 9.95696451 262.01969773 10.02026367 266.54492188 C10.02903603 268.16535851 10.03667819 269.78580183 10.04296875 271.40625 C10.0659906 272.64036621 10.0659906 272.64036621 10.08947754 273.89941406 C10.09229556 280.20426486 9.23280732 286.02338094 4.99609375 290.99609375 C4.39925781 291.45113281 3.80242187 291.90617187 3.1875 292.375 C2.58808594 292.84808594 1.98867187 293.32117188 1.37109375 293.80859375 C-3.31528453 297.07211983 -8.74444216 296.43800526 -14.25 295.9375 C-19.63175503 294.27058472 -22.56662184 290.78822207 -25.25 285.9375 C-26.58593951 281.92968148 -26.42790164 278.05703826 -26.45532227 273.8762207 C-26.46522186 272.94919342 -26.47512146 272.02216614 -26.48532104 271.06704712 C-26.51693936 267.99915125 -26.54169486 264.93123989 -26.56640625 261.86328125 C-26.58697548 259.73764134 -26.60797195 257.61200553 -26.62937927 255.4863739 C-26.68460306 249.88865471 -26.73401103 244.29089859 -26.78222656 238.69311523 C-26.84126593 231.97833969 -26.90749562 225.26363172 -26.97252655 218.54891205 C-27.07053994 208.34514926 -27.15939342 198.14134336 -27.25 187.9375 C-55.96 187.9375 -84.67 187.9375 -114.25 187.9375 C-114.25 200.4775 -114.25 213.0175 -114.25 225.9375 C-117.20882432 233.82769818 -118.59704717 236.36613133 -125.625 240.25 C-130.84186029 241.61632055 -135.22478265 241.78107014 -140 239.25 C-144.41811158 236.10634369 -147.22528769 233.31129926 -148.25 227.9375 C-148.36225428 226.27035773 -148.42572422 224.59961014 -148.45532227 222.92895508 C-148.48520988 221.40334206 -148.48520988 221.40334206 -148.51570129 219.84690857 C-148.53243393 218.72824905 -148.54916656 217.60958954 -148.56640625 216.45703125 C-148.58736862 215.26066544 -148.60833099 214.06429962 -148.62992859 212.8316803 C-148.69737247 208.80452512 -148.75602619 204.77731959 -148.8125 200.75 C-148.83287172 199.34808329 -148.85325757 197.94616679 -148.87365723 196.54425049 C-149.23432745 171.30826873 -149.41299016 146.0700022 -149.48117065 120.83163452 C-149.49227828 116.821181 -149.51015184 112.81084476 -149.53372192 108.80044556 C-149.56111664 104.02941054 -149.57335148 99.25856672 -149.57413673 94.48745537 C-149.57676644 92.71854584 -149.5844716 90.94963554 -149.59760094 89.18077278 C-149.61467087 86.74382958 -149.61286898 84.30758441 -149.60644531 81.87060547 C-149.61566293 81.16553769 -149.62488054 80.46046991 -149.63437748 79.73403645 C-149.58130649 73.40578967 -147.97722643 68.93045358 -143.8125 64.125 C-138.71515259 59.77360587 -134.76282355 59.5006784 -128.1640625 59.62109375 C-122.89048686 60.19369379 -120.32301726 62.71948041 -116.9375 66.5625 C-114.66999252 69.75380683 -114.12546727 71.35104343 -114.13647461 75.20361328 C-114.13659546 76.09669189 -114.13671631 76.98977051 -114.13684082 77.90991211 C-114.14195679 78.84971924 -114.14707275 79.78952637 -114.15234375 80.7578125 C-114.15335083 81.62075928 -114.15435791 82.48370605 -114.15539551 83.37280273 C-114.16063565 86.6027153 -114.17459688 89.83260896 -114.1875 93.0625 C-114.2184375 103.890625 -114.2184375 103.890625 -114.25 114.9375 C-85.54 114.9375 -56.83 114.9375 -27.25 114.9375 C-27.28926299 91.56114496 -27.28926299 91.56114496 -27.34008789 68.18481445 C-27.35536132 58.76869551 -27.32751772 49.3533216 -27.25 39.9375 C-27.24416649 39.19489677 -27.23833298 38.45229355 -27.23232269 37.68718719 C-27.19059524 32.90867433 -27.10501305 28.13292569 -26.99609375 23.35546875 C-26.97531517 21.58336784 -26.97531517 21.58336784 -26.95411682 19.77546692 C-26.73638682 12.38515602 -25.84395978 8.63690603 -20.65234375 3.29296875 C-14.34290082 -1.73776041 -7.67020541 -2.50756715 0 0 Z "
     fill="#010101"
     transform="translate(180.25,214.0625)"
     id="path2" />
  <path
     d="M0 0 C9.9 0 19.8 0 30 0 C30.03738281 2.97386719 30.07476562 5.94773437 30.11328125 9.01171875 C30.15951691 11.89777912 30.21074318 14.78371084 30.26245117 17.66967773 C30.29566727 19.67252764 30.32370952 21.6754704 30.34643555 23.6784668 C30.38004234 26.56078594 30.43236148 29.44225668 30.48828125 32.32421875 C30.49467117 33.21711105 30.5010611 34.11000336 30.50764465 35.029953 C30.62015679 39.80741108 30.84928368 43.15511318 34 47 C37.75047482 49.50031654 39.55856266 49.53603554 44 49 C46.84571047 46.98509371 48.71277661 45.4033053 49.43276978 41.8855896 C49.57927372 39.27779288 49.56193704 36.71636166 49.48828125 34.10546875 C49.47766914 32.68443596 49.47766914 32.68443596 49.46684265 31.23469543 C49.43892334 28.21814979 49.37618915 25.2034816 49.3125 22.1875 C49.28741396 20.13869874 49.26460133 18.0898683 49.24414062 16.04101562 C49.19336125 11.02604414 49.09550579 6.01511534 49 1 C60.88 1 72.76 1 85 1 C85.08636719 4.04605469 85.17273438 7.09210938 85.26171875 10.23046875 C85.36199389 13.1861978 85.47051439 16.14151711 85.57983398 19.09692383 C85.65128963 21.14807365 85.71419418 23.19954019 85.76831055 25.2512207 C85.84768725 28.203891 85.9579591 31.1540487 86.07421875 34.10546875 C86.09215988 35.02023483 86.11010101 35.93500092 86.12858582 36.87748718 C86.33465117 41.34811396 86.56303076 43.42474763 89.33911133 47.0793457 C91.94204616 49.25066116 91.94204616 49.25066116 95.5 49.625 C100.03773825 48.8146896 101.2296699 47.66846966 104 44 C104.73639128 40.70287696 104.72151181 37.47376525 104.70703125 34.10546875 C104.72971321 32.68443596 104.72971321 32.68443596 104.75285339 31.23469543 C104.79572747 28.21872144 104.8045682 25.20374837 104.8125 22.1875 C104.8356445 20.13864527 104.86100974 18.08981434 104.88867188 16.04101562 C104.95569057 11.02679898 104.97665296 6.01536966 105 1 C116.88 1 128.76 1 141 1 C141.03867187 5.33511719 141.03867187 5.33511719 141.078125 9.7578125 C141.11657656 12.56780591 141.16172676 15.37761776 141.20751953 18.1875 C141.23568321 20.13500245 141.2569206 22.08261822 141.27099609 24.03027344 C141.29248946 26.83587468 141.33917198 29.64012 141.390625 32.4453125 C141.39246796 33.74409836 141.39246796 33.74409836 141.39434814 35.06912231 C141.52804935 40.63178908 142.36820784 43.72325458 146 48 C149.36455222 49.4719916 152.84606954 49.3340325 156.375 48.3125 C158.84407462 46.31824742 159.86922949 44.1078574 160.24050903 40.96246338 C160.23606781 40.24298523 160.23162659 39.52350708 160.22705078 38.78222656 C160.22689972 37.96167786 160.22674866 37.14112915 160.22659302 36.29571533 C160.21110916 34.98144562 160.21110916 34.98144562 160.1953125 33.640625 C160.1924826 32.73624695 160.18965271 31.8318689 160.18673706 30.90008545 C160.17555782 28.01658805 160.15045733 25.13340325 160.125 22.25 C160.11496728 20.29297324 160.10584194 18.33594161 160.09765625 16.37890625 C160.07732892 11.58572069 160.03817601 6.79320954 160 2 C172.21 1.67 184.42 1.34 197 1 C197.04898438 3.82949219 197.09796875 6.65898437 197.1484375 9.57421875 C197.20248148 12.32126045 197.25977556 15.06821653 197.31738281 17.81518555 C197.35561339 19.72104486 197.39047655 21.62697487 197.421875 23.53295898 C197.46765422 26.27613553 197.5256273 29.01882788 197.5859375 31.76171875 C197.60326431 33.03543587 197.60326431 33.03543587 197.62094116 34.33488464 C197.75010171 39.53812992 197.95845714 43.88554489 201.75 47.8125 C204.77894929 49.41111212 206.61402051 49.48371136 210 49 C212.82423875 47.68030891 212.82423875 47.68030891 215 45 C215.76193802 41.7433714 215.72127993 38.53618613 215.70703125 35.203125 C215.72971321 33.77996979 215.72971321 33.77996979 215.75285339 32.32806396 C215.79579423 29.30180209 215.80457461 26.27653642 215.8125 23.25 C215.83563932 21.19658798 215.86100347 19.14319974 215.88867188 17.08984375 C215.95158751 12.05980752 215.98387288 7.03039508 216 2 C228.03927427 1.90733322 240.07846374 1.83625167 252.11802197 1.79275131 C257.70844809 1.77187363 263.29863028 1.74355228 268.88891602 1.69824219 C274.2835308 1.6547915 279.67791089 1.63086425 285.07268715 1.62049103 C287.13120532 1.61309831 289.18971059 1.59866212 291.24812889 1.57707977 C294.13078985 1.54805645 297.01248019 1.54404359 299.89526367 1.54589844 C300.74690598 1.53151733 301.59854828 1.51713623 302.47599792 1.50231934 C306.45750894 1.53005338 308.5155249 1.70560697 311.99092102 3.81744385 C320.20320005 12.73882538 317.16208149 32.58671142 317.16796875 43.9765625 C317.17119717 45.47805815 317.17456231 46.97955352 317.17805481 48.48104858 C317.18399152 51.60895515 317.18590046 54.73683431 317.18530273 57.86474609 C317.18522163 61.02756487 317.19214821 64.19023834 317.20581055 67.35302734 C317.42824741 119.68941849 317.42824741 119.68941849 311.19070148 127.16980362 C306.20570112 130.02921547 301.35627733 129.55602185 295.70585632 129.51898193 C293.81284695 129.53023381 293.81284695 129.53023381 291.88159496 129.541713 C288.38108263 129.56198553 284.88097528 129.55741638 281.38043106 129.54880548 C277.60470429 129.54386458 273.82907976 129.5619406 270.0533905 129.57722473 C263.51257176 129.60055031 256.97186393 129.60928468 250.43100548 129.60811615 C240.97404332 129.60644773 231.51722912 129.62677327 222.06030641 129.65247145 C206.71721344 129.69356717 191.37414705 129.7168691 176.03100586 129.72900391 C161.12635746 129.74082997 146.22175913 129.761022 131.31713867 129.79248047 C130.39845765 129.79441657 129.47977663 129.79635267 128.53325679 129.79834744 C123.92451572 129.80811193 119.31577501 129.81804106 114.70703447 129.82805204 C76.47138012 129.91089351 38.23572621 129.96486703 0 130 C0.20849579 129.24314407 0.41699158 128.48628815 0.63180542 127.70649719 C0.90396881 126.71449814 1.1761322 125.72249908 1.45654297 124.70043945 C1.72691376 123.71670853 1.99728455 122.7329776 2.27584839 121.71943665 C5.95816647 107.89107449 6.15456186 93.3987877 6.16796875 79.17578125 C6.17129715 77.90888962 6.17462555 76.64199799 6.17805481 75.3367157 C6.18308029 72.67536866 6.18590171 70.01412404 6.18530273 67.3527832 C6.18522163 64.66814413 6.19215073 61.98367627 6.20581055 59.29907227 C6.89392825 31.2622181 6.89392825 31.2622181 0.8046875 4.15234375 C0 2 0 2 0 0 Z "
     fill="#7EC2E9"
     transform="translate(338,298)"
     id="path3" />
  <path
     d="M0 0 C15.39879778 13.16740814 26.70966548 31.51162667 30.3125 51.6875 C29.83630952 56.16369048 29.83630952 56.16369048 28.3125 57.6875 C25.31781636 57.81350352 22.3474722 57.87619347 19.3515625 57.890625 C18.45005463 57.89632507 17.54854675 57.90202515 16.61972046 57.90789795 C14.70808085 57.91736325 12.7964248 57.92388798 10.88476562 57.92773438 C7.95674196 57.93743624 5.0294211 57.96844342 2.1015625 58 C0.24740002 58.00653008 -1.6067675 58.01178053 -3.4609375 58.015625 C-4.77824356 58.0341452 -4.77824356 58.0341452 -6.12216187 58.05303955 C-6.93955841 58.05003845 -7.75695496 58.04703735 -8.59912109 58.04394531 C-9.67714493 58.04941376 -9.67714493 58.04941376 -10.77694702 58.05499268 C-13.2615058 57.57709064 -14.12384038 56.63762015 -15.6875 54.6875 C-16.64453125 52.3046875 -16.64453125 52.3046875 -17.5 49.5625 C-20.94928544 39.69624202 -26.69126801 31.73595251 -35.84765625 26.4375 C-48.58877096 20.32536032 -64.32381866 19.73669847 -77.80859375 23.64453125 C-92.73358843 29.05155103 -100.95158191 36.37455353 -108.09765625 50.46875 C-114.08048257 63.7883144 -116.37598783 77.55552236 -116.20898438 92.04467773 C-116.18745906 94.25420275 -116.20898205 96.46049126 -116.234375 98.66992188 C-116.25904477 111.8731841 -114.02907294 124.93238918 -107.6875 136.6875 C-107.24535156 137.51765625 -106.80320312 138.3478125 -106.34765625 139.203125 C-99.3241018 151.64804376 -89.23141429 159.10143852 -75.4453125 162.99609375 C-60.14971544 165.81035641 -43.99922578 164.06734049 -30.6875 155.6875 C-23.75673943 150.72746687 -19.91595651 145.51714256 -16.6875 137.6875 C-16.38070312 136.9759375 -16.07390625 136.264375 -15.7578125 135.53125 C-15.06374395 133.91836688 -14.37502483 132.30318336 -13.6875 130.6875 C-11.76492825 128.76492825 -8.90664892 129.55841576 -6.34875488 129.54855347 C-5.01596497 129.55158981 -5.01596497 129.55158981 -3.65625 129.5546875 C-2.74999878 129.55373077 -1.84374756 129.55277405 -0.91003418 129.55178833 C1.01001047 129.55110647 2.93005741 129.55296118 4.85009766 129.55712891 C7.79985704 129.56247708 10.74946414 129.55718412 13.69921875 129.55078125 C15.55989617 129.55144203 17.4205735 129.55272319 19.28125 129.5546875 C20.16977661 129.55266327 21.05830322 129.55063904 21.97375488 129.54855347 C28.19755012 129.57255012 28.19755012 129.57255012 29.3125 130.6875 C28.64615263 150.67792106 14.89144798 170.14717312 0.83203125 183.56640625 C-21.4241503 202.3030056 -48.06614472 205.20094408 -76.21875 203.44140625 C-95.44205517 201.57674565 -112.01574161 194.0558424 -126.6875 181.6875 C-127.49832031 181.0790625 -128.30914062 180.470625 -129.14453125 179.84375 C-132.1619727 177.28518213 -134.5812746 174.42062474 -137 171.3125 C-137.47783936 170.69890625 -137.95567871 170.0853125 -138.44799805 169.453125 C-159.57554927 141.72166651 -166.37947092 107.10183594 -161.86523438 72.90649414 C-157.26705778 43.39640494 -143.20004521 16.26811447 -119.484375 -2.2890625 C-84.2321408 -27.79277384 -34.19610509 -26.90219902 0 0 Z "
     fill="#010101"
     transform="translate(364.6875,538.3125)"
     id="path4" />
  <path
     d="M0 0 C2.46724602 2.13876652 4.73453802 4.33293907 6.953125 6.7265625 C7.47261719 7.27699219 7.99210938 7.82742188 8.52734375 8.39453125 C16.30402413 17.85265603 17.08735653 31.76101556 17.14257812 43.47875977 C17.15501808 44.90959648 17.15501808 44.90959648 17.16770935 46.36933899 C17.18504564 48.43232675 17.20022968 50.4953335 17.21348572 52.55835152 C17.23464701 55.8350883 17.26166291 59.11173179 17.29016113 62.38841248 C17.34969771 69.3552591 17.40185798 76.3221508 17.453125 83.2890625 C17.51262541 91.34363408 17.57523062 99.39816043 17.64500427 107.45265007 C17.67129358 110.65954478 17.69228428 113.86644478 17.7130127 117.07337952 C17.79265634 127.33304078 18.00583491 137.50340063 18.953125 147.7265625 C15.24536749 150.19840084 12.36667295 150.03260329 8.07421875 150.02734375 C7.30634537 150.03162888 6.53847198 150.035914 5.74732971 150.04032898 C4.12591538 150.04606702 2.50447531 150.0465764 0.88305664 150.04223633 C-1.60379572 150.0390696 -4.08946603 150.06256375 -6.57617188 150.08789062 C-8.15104016 150.09016293 -9.72591166 150.09086743 -11.30078125 150.08984375 C-12.04662979 150.0990535 -12.79247833 150.10826324 -13.56092834 150.11775208 C-15.65454102 150.09887695 -15.65454102 150.09887695 -19.046875 149.7265625 C-21.40667546 146.1868618 -21.63288308 143.73549962 -22.171875 139.5390625 C-22.33945312 138.26675781 -22.50703125 136.99445313 -22.6796875 135.68359375 C-22.80085938 134.70777344 -22.92203125 133.73195313 -23.046875 132.7265625 C-23.54574219 133.36722656 -24.04460937 134.00789062 -24.55859375 134.66796875 C-33.71537556 145.69884953 -44.85675226 151.11959208 -59.046875 152.7265625 C-77.00579928 154.1428194 -92.8789673 151.360532 -107.171875 139.7890625 C-115.24798253 132.29251963 -119.83399767 122.03352484 -120.28515625 111.06640625 C-120.6010525 95.69278882 -118.90994969 83.29445426 -108.08203125 71.60546875 C-93.80853419 57.9514363 -74.43015042 55.46658543 -55.671875 53.1640625 C-40.21669374 52.23104023 -40.21669374 52.23104023 -27.046875 45.7265625 C-24.90648729 41.44578707 -24.55568678 37.43303869 -25.046875 32.7265625 C-27.01994502 27.32658138 -29.71754757 24.44659197 -34.80859375 21.81640625 C-43.44496767 18.2796055 -54.89401169 18.20817855 -63.671875 21.2890625 C-69.26088045 23.98493572 -72.84585597 27.53014966 -75.0390625 33.3671875 C-75.56761854 35.12904097 -76.05904805 36.90267499 -76.50390625 38.6875 C-77.046875 40.7265625 -77.046875 40.7265625 -78.046875 41.7265625 C-80.77411779 41.82755738 -83.47550023 41.86626779 -86.203125 41.859375 C-87.42932556 41.86081009 -87.42932556 41.86081009 -88.68029785 41.86227417 C-90.41202878 41.86295595 -92.14376224 41.86110179 -93.87548828 41.85693359 C-96.53553982 41.85158529 -99.1954225 41.85687862 -101.85546875 41.86328125 C-103.53385454 41.86262047 -105.21224023 41.8613393 -106.890625 41.859375 C-107.69165649 41.86139923 -108.49268799 41.86342346 -109.31799316 41.86550903 C-114.93192421 41.84151329 -114.93192421 41.84151329 -116.046875 40.7265625 C-116.896429 27.21865394 -109.70495946 14.17298649 -101.359375 4.0390625 C-76.86396157 -22.26567125 -27.55935457 -20.56351841 0 0 Z "
     fill="#010101"
     transform="translate(532.046875,589.2734375)"
     id="path5" />
  <path
     d="M0 0 C42.57 0 85.14 0 129 0 C133.50176018 9.00352035 133.50176018 9.00352035 134.23046875 14.265625 C134.39353516 15.40386719 134.55660156 16.54210937 134.72460938 17.71484375 C134.87736328 18.88144531 135.03011719 20.04804688 135.1875 21.25 C135.35185547 22.40113281 135.51621094 23.55226563 135.68554688 24.73828125 C137.54804952 38.11512209 138.20600557 51.26526529 138.1875 64.75 C138.18689575 65.56237122 138.1862915 66.37474243 138.18566895 67.21173096 C138.09790824 110.80418351 138.09790824 110.80418351 129 129 C86.1 129 43.2 129 -1 129 C-1 98.48821317 -0.9200045 68.00477112 -0.5 37.5 C-0.335 25.125 -0.17 12.75 0 0 Z "
     fill="#FBFAFA"
     transform="translate(191,299)"
     id="path6"
     style="fill:#ffffff;fill-opacity:1" />
  <path
     d="M0 0 C13.18015819 10.01000353 25.2755749 26.176675 28 43 C27.69348649 44.67180691 27.36257458 46.33944932 27 48 C21.76725612 48.02467917 16.53454597 48.04285003 11.30175781 48.05493164 C9.52082733 48.05996711 7.739901 48.06679581 5.95898438 48.07543945 C3.40233335 48.08753942 0.84573688 48.09323609 -1.7109375 48.09765625 C-2.50994476 48.10281754 -3.30895203 48.10797882 -4.13217163 48.11329651 C-9.77225659 48.11387171 -9.77225659 48.11387171 -12 47 C-12.58972076 45.47606814 -13.12237964 43.92983493 -13.625 42.375 C-16.2675663 35.53368947 -20.90569574 31.21376044 -27.5 28.0625 C-36.16726721 25.32186215 -47.71432107 25.69877144 -55.88671875 29.61328125 C-64.67939025 35.38296403 -68.73464679 45.06729746 -71 55 C-74.07735426 72.68594403 -73.81704165 93.75938981 -63.48828125 109.0859375 C-59.23803238 114.55213683 -53.64230412 117.34364936 -47 119 C-37.63641892 119.95742138 -28.39762372 119.75815625 -20 115 C-15.39374549 110.89442533 -13.41789364 105.92613666 -11.015625 100.29296875 C-10 98 -10 98 -9 97 C-6.35713726 96.88663374 -3.74138544 96.83582239 -1.09765625 96.83203125 C-0.30475693 96.82870285 0.4881424 96.82537445 1.30506897 96.82194519 C2.98551858 96.81687274 4.66597829 96.81453696 6.34643555 96.81469727 C8.92318259 96.81251214 11.49950076 96.79436391 14.07617188 96.77539062 C15.7057277 96.77245655 17.33528556 96.77047185 18.96484375 96.76953125 C20.12583839 96.75875298 20.12583839 96.75875298 21.31028748 96.74775696 C26.77117747 96.77117747 26.77117747 96.77117747 29 99 C29.2375401 112.77732588 20.63195647 125.91391466 12 136 C11.13761719 137.01320313 11.13761719 137.01320313 10.2578125 138.046875 C-1.38084432 150.63221682 -18.8798172 156.55186923 -35.671875 157.21875 C-55.81684511 157.73071526 -73.80096823 152.75880094 -89 139 C-89.66 138.43152344 -90.32 137.86304688 -91 137.27734375 C-107.22190843 122.35445533 -115.2900981 99.11349208 -116.34765625 77.49609375 C-116.98344189 53.45963214 -112.04816675 29.0223477 -95 11 C-94.34 11 -93.68 11 -93 11 C-93 10.34 -93 9.68 -93 9 C-68.63281554 -12.64554431 -27.96840133 -17.88862136 0 0 Z "
     fill="#010101"
     transform="translate(754,585)"
     id="path7" />
  <path
     d="M0 0 C1.2219104 0.00607269 1.2219104 0.00607269 2.46850586 0.01226807 C3.30438232 0.01035461 4.14025879 0.00844116 5.00146484 0.00646973 C6.77010397 0.00510771 8.53875309 0.0088053 10.30737305 0.01715088 C13.02016579 0.02785031 15.7322963 0.01725631 18.44506836 0.00445557 C20.16121566 0.00577716 21.87736255 0.00833955 23.59350586 0.01226807 C24.40811279 0.0082196 25.22271973 0.00417114 26.06201172 0 C31.80108658 0.04797379 31.80108658 0.04797379 34.03100586 2.27789307 C34.22670242 5.13387774 34.2957839 7.89278491 34.27824402 10.74983215 C34.28065843 11.6369663 34.28307285 12.52410045 34.28556043 13.43811744 C34.29122302 16.42848403 34.28251507 19.4186394 34.27392578 22.40899658 C34.27499802 24.54557351 34.27693583 26.68215015 34.27967834 28.81872559 C34.28453882 34.63463306 34.27685626 40.45046419 34.2667253 46.26636243 C34.25796546 52.33978014 34.25970184 58.41319531 34.26008606 64.48661804 C34.25914855 74.68650598 34.25045246 84.88636423 34.23681641 95.08624268 C34.22108576 106.89690224 34.2158184 118.70752927 34.21655196 130.51819855 C34.21716128 141.85793611 34.21206493 153.19766302 34.20376015 164.53739738 C34.20021983 169.37352519 34.19839583 174.20964923 34.19786644 179.04577827 C34.19686547 184.73461737 34.19078914 190.4234289 34.1807003 196.11225891 C34.17776745 198.20655079 34.17655151 200.30084584 34.17712784 202.39513969 C34.17761485 205.2411021 34.1719994 208.08698609 34.16471863 210.93293762 C34.16626723 211.77299632 34.16781583 212.61305502 34.16941136 213.47857004 C34.1451844 219.16371453 34.1451844 219.16371453 33.03100586 220.27789307 C30.17006369 220.39138467 27.3341713 220.44207798 24.47241211 220.44586182 C23.61292465 220.44919022 22.75343719 220.45251862 21.86790466 220.45594788 C20.04621925 220.46102077 18.2245245 220.46335609 16.40283203 220.4631958 C13.60881296 220.46538109 10.81518929 220.48352951 8.02124023 220.50250244 C6.25496555 220.50543647 4.48868898 220.5074212 2.72241211 220.50836182 C1.88279434 220.51554733 1.04317657 220.52273285 0.17811584 220.53013611 C-5.74017233 220.50671488 -5.74017233 220.50671488 -7.96899414 218.27789307 C-8.16686026 215.43676863 -8.23818007 212.69300298 -8.22296143 209.85064697 C-8.22608141 208.96830194 -8.22920139 208.08595692 -8.23241591 207.17687416 C-8.24043114 204.20266786 -8.2340586 201.2286636 -8.2277832 198.25445557 C-8.2304915 196.12935262 -8.23405152 194.00425061 -8.23840332 191.87915039 C-8.24754877 186.0941718 -8.2439742 180.30926426 -8.23764515 174.52428436 C-8.23259628 168.48202822 -8.23727349 162.43977834 -8.24041748 156.39752197 C-8.24406038 146.24891055 -8.23924953 136.1003282 -8.22973633 125.95172119 C-8.21885117 114.20354953 -8.22237652 102.45544728 -8.23338914 90.7072773 C-8.24245279 80.6367947 -8.24375182 70.56633306 -8.2385118 60.4958477 C-8.23538702 54.47406755 -8.23499665 48.45232007 -8.24158478 42.43054199 C-8.24734423 36.77040595 -8.24338712 31.11035975 -8.23179626 25.45023346 C-8.22914215 23.36764933 -8.22992748 21.28505769 -8.23432159 19.2024765 C-8.23974897 16.36992715 -8.23297728 13.53766968 -8.22296143 10.70513916 C-8.22742287 9.87188425 -8.23188431 9.03862934 -8.23648095 8.18012428 C-8.18805881 1.16898265 -7.00473264 0.05855361 0 0 Z "
     fill="#010101"
     transform="translate(585.968994140625,518.7221069335938)"
     id="path8" />
  <path
     d="M0 0 C7.59 0 15.18 0 23 0 C27.06059071 14.1394204 30.56588795 28.37196351 33.93139648 42.69165039 C34.82339929 46.48383635 35.72289968 50.27419306 36.62304688 54.06445312 C37.19315058 56.47906229 37.76282825 58.8937721 38.33203125 61.30859375 C38.60070511 62.43970078 38.86937897 63.5708078 39.14619446 64.7361908 C39.39032578 65.77900711 39.63445709 66.82182343 39.88598633 67.89624023 C40.10184891 68.8123558 40.31771149 69.72847137 40.54011536 70.67234802 C41 73 41 73 41 76 C35.39 76 29.78 76 24 76 C22 68 22 68 22 64 C15.07 64 8.14 64 1 64 C0.34 67.96 -0.32 71.92 -1 76 C-6.61 76 -12.22 76 -18 76 C-15.95159653 66.97602754 -13.90063424 57.95264707 -11.84520149 48.93027306 C-10.89081404 44.74049641 -9.93753613 40.55047384 -8.98681641 36.35986328 C-8.06873482 32.31330711 -7.14770937 28.2674312 -6.2246666 24.22200394 C-5.87358243 22.6809421 -5.52354731 21.13964087 -5.17459488 19.59809494 C-4.6844656 17.43372524 -4.19056315 15.2702482 -3.69580078 13.10693359 C-3.41600372 11.87671478 -3.13620667 10.64649597 -2.84793091 9.3789978 C-2.05269017 6.20996991 -1.03320596 3.09961788 0 0 Z "
     fill="#030303"
     transform="translate(272,325)"
     id="path9" />
  <path
     d="M0 0 C0.59310171 29.6550857 0.59310171 29.6550857 -8 40 C-16.8493464 48.14346469 -27.90113146 49.61158548 -39.53125 49.3515625 C-45.66843484 48.72955052 -49.28148222 46.85071146 -53.4375 42.375 C-57.31016881 36.48854341 -56.59126009 29.8065299 -56 23 C-54.12161338 16.72273858 -49.50250643 13.28956536 -43.91015625 10.2421875 C-37.04285798 7.31091119 -29.67485898 6.42101965 -22.34765625 5.26171875 C-21.55359375 5.13434326 -20.75953125 5.00696777 -19.94140625 4.87573242 C-18.39752099 4.63188601 -16.85195839 4.39835137 -15.3046875 4.17700195 C-10.25801411 3.40403189 -4.81241523 0 0 0 Z "
     fill="#F9F8F7"
     transform="translate(509,660)"
     id="path10"
     style="fill:#ffffff;fill-opacity:1" />
  <path
     d="M0 0 C0 6.93 0 13.86 0 21 C-28.71 21 -57.42 21 -87 21 C-87 14.4 -87 7.8 -87 1 C-78.3144111 0.86817706 -69.6288065 0.73753475 -60.94317055 0.60884857 C-56.90806623 0.54901993 -52.87297028 0.48871708 -48.83789062 0.42724609 C-15.92841827 -0.07348751 -15.92841827 -0.07348751 0 0 Z "
     fill="#F8F7F5"
     transform="translate(153,356)"
     id="path11"
     style="fill:#ffffff;fill-opacity:1" />
  <path
     d="M0 0 C5.61 0 11.22 0 17 0 C16.67 19.8 16.34 39.6 16 60 C23.59 60 31.18 60 39 60 C39 65.28 39 70.56 39 76 C26.13 76 13.26 76 0 76 C0 50.92 0 25.84 0 0 Z "
     fill="#040404"
     transform="translate(213,325)"
     id="path12" />
  <path
     d="M0 0 C0.33 0 0.66 0 1 0 C1.9994947 4.66253647 2.99634318 9.32562774 3.99072266 13.98925781 C4.32950987 15.5763281 4.66902501 17.16324318 5.00927734 18.75 C5.49767573 21.02824322 5.98347013 23.30702826 6.46875 25.5859375 C6.62186646 26.29744965 6.77498291 27.00896179 6.93273926 27.74203491 C8 32.77225659 8 32.77225659 8 35 C3.38 35 -1.24 35 -6 35 C-5.29929803 27.97838231 -4.22608356 21.07280682 -3 14.125 C-2.82210938 13.09375 -2.64421875 12.0625 -2.4609375 11 C-1.12933551 3.38800652 -1.12933551 3.38800652 0 0 Z "
     fill="#F4F4F4"
     transform="translate(282,339)"
     id="path13" />
  <path
     d="M0 0 C3.96 0 7.92 0 12 0 C12.33 0.66 12.66 1.32 13 2 C9.37 2 5.74 2 2 2 C2 15.53 2 29.06 2 43 C1.67 43 1.34 43 1 43 C0.17838566 28.65109237 -0.12401179 14.37158815 0 0 Z M0 43 C0.33 43.99 0.66 44.98 1 46 C-0.98 46.99 -0.98 46.99 -3 48 C-2.01 46.35 -1.02 44.7 0 43 Z "
     fill="#8CDCF2"
     transform="translate(387,299)"
     id="path14" />
  <path
     d="M0 0 C3.3 0 6.6 0 10 0 C10 5.61 10 11.22 10 17 C9.34 17.33 8.68 17.66 8 18 C7.67 12.72 7.34 7.44 7 2 C4.69 1.67 2.38 1.34 0 1 C0 0.67 0 0.34 0 0 Z "
     fill="#71B3CB"
     transform="translate(525,299)"
     id="path15" />
</svg>
